<svg version="1.1" xmlns="http://www.w3.org/2000/svg" viewBox="0 0 303.5623045182688 357.8936277453022" width="303.5623045182688" height="357.8936277453022"><!-- svg-source:excalidraw --><metadata></metadata><defs><style class="style-fonts">
      </style></defs><rect x="0" y="0" width="303.5623045182688" height="357.8936277453022" fill="#ffffff"></rect><g stroke-linecap="round"><g transform="translate(11.146947006508526 77.97957995674912) rotate(0 109.05016196174552 -26.149783735724725)" fill-rule="evenodd"><path d="M1.76 0.39 C9.96 1.07, 35.96 1.97, 51.65 2.76 C67.34 3.54, 71.91 2.68, 95.89 5.09 C119.87 7.5, 175.49 20.95, 195.54 17.23 C215.58 13.5, 214.77 -4.46, 216.15 -17.25 C217.53 -30.03, 215.77 -50.8, 203.83 -59.46 C191.89 -68.12, 165.96 -70.2, 144.52 -69.2 C123.08 -68.19, 97.23 -61.21, 75.21 -53.43 C53.19 -45.64, 24.71 -31.07, 12.41 -22.48 C0.12 -13.89, 3.9 -5.5, 1.47 -1.88" stroke="none" stroke-width="0" fill="#e9ecef" fill-rule="evenodd"></path><path d="M0.91 -0.9 C9.37 -0.38, 34.41 2.25, 50.03 3.23 C65.66 4.2, 70.67 2.74, 94.67 4.93 C118.66 7.12, 173.24 19.96, 194 16.38 C214.76 12.8, 217.75 -3.62, 219.24 -16.54 C220.73 -29.45, 215.09 -52.75, 202.92 -61.12 C190.76 -69.49, 167.29 -68.03, 146.24 -66.76 C125.19 -65.49, 98.96 -61.01, 76.63 -53.5 C54.3 -45.99, 25.21 -30.46, 12.24 -21.72 C-0.72 -12.98, 0.84 -4.8, -1.15 -1.08 M-0.07 1.24 C8.8 1.44, 35.96 1.36, 52.14 1.63 C68.32 1.9, 73.3 0.74, 97.02 2.84 C120.74 4.94, 174.22 17.49, 194.45 14.24 C214.67 10.99, 217.29 -4.44, 218.37 -16.65 C219.44 -28.87, 212.85 -50.56, 200.88 -59.03 C188.91 -67.51, 167.34 -68.89, 146.54 -67.52 C125.75 -66.15, 98.26 -58.77, 76.11 -50.81 C53.96 -42.85, 26.5 -28.48, 13.65 -19.75 C0.8 -11.02, 1.15 -1.44, -0.98 1.56" stroke="#1e1e1e" stroke-width="1" fill="none"></path></g></g><mask></mask><g stroke-linecap="round"><g transform="translate(13.372460515931834 77.97957995674912) rotate(0 120.17772950886251 126.29789165977687)" fill-rule="evenodd"><path d="M1.41 -1.05 C8.02 4.33, 30.78 20.68, 38.03 31.48 C45.29 42.28, 45.41 34.61, 44.94 63.75 C44.47 92.88, 39.19 173.98, 35.2 206.29 C31.21 238.6, 5.38 248.03, 21.01 257.6 C36.63 267.16, 92.14 263.23, 128.96 263.7 C165.78 264.17, 226.38 280.64, 241.93 260.42 C257.48 240.21, 226.62 178.69, 222.27 142.39 C217.92 106.09, 216.34 67.85, 215.83 42.63 C215.32 17.41, 221.33 -4, 219.23 -8.93 C217.12 -13.86, 211.67 8.95, 203.18 13.07 C194.7 17.19, 185.97 16.6, 168.34 15.8 C150.71 15, 115.28 9.5, 97.38 8.27 C79.49 7.03, 76.97 9.92, 60.96 8.41 C44.95 6.9, 11.3 0.9, 1.35 -0.81" stroke="none" stroke-width="0" fill="#e9ecef" fill-rule="evenodd"></path><path d="M-0.34 -0.71 C5.36 4.83, 28.2 23.18, 35.33 34.12 C42.46 45.06, 42.55 36.7, 42.42 64.94 C42.29 93.18, 38.2 171.24, 34.55 203.57 C30.91 235.9, 4.48 248.86, 20.57 258.93 C36.67 269, 94.34 263.89, 131.12 264.01 C167.91 264.13, 225.68 279.77, 241.29 259.64 C256.9 239.51, 228.91 179.22, 224.8 143.22 C220.69 107.23, 217.65 69.42, 216.64 43.65 C215.63 17.88, 220.85 -6.32, 218.75 -11.41 C216.66 -16.51, 211.97 8.57, 204.07 13.08 C196.17 17.59, 189.03 16.93, 171.36 15.67 C153.68 14.4, 116.28 7.09, 98 5.49 C79.72 3.9, 77.96 7.09, 61.7 6.09 C45.44 5.09, 10.75 0.56, 0.43 -0.52 M1.68 1.54 C7.1 6.65, 27.05 21.66, 34.24 32.39 C41.42 43.11, 44.8 37.28, 44.8 65.89 C44.8 94.5, 37.97 171.75, 34.25 204.05 C30.52 236.36, 6.1 249.88, 22.46 259.73 C38.83 269.57, 96.39 263.33, 132.44 263.12 C168.49 262.92, 223.44 278.46, 238.76 258.49 C254.09 238.52, 228.27 179.31, 224.37 143.3 C220.47 107.28, 216.12 68.29, 215.37 42.4 C214.62 16.52, 221.75 -7.27, 219.86 -12.01 C217.97 -16.76, 212.26 8.86, 204.03 13.92 C195.81 18.98, 188.25 19.4, 170.52 18.36 C152.8 17.33, 115.99 9.83, 97.69 7.71 C79.38 5.58, 76.79 7.1, 60.68 5.59 C44.56 4.09, 10.98 -0.52, 0.98 -1.34" stroke="#1e1e1e" stroke-width="1" fill="none"></path></g></g><mask></mask><g stroke-linecap="round"><g transform="translate(255.95343304308017 201.4955797297467) rotate(0 -12.796702679184591 -32.82632426399488)" fill-rule="evenodd"><path d="M0.05 0.3 C0.61 -8.73, 7.42 -40.52, 5.69 -52.1 C3.95 -63.69, -3.13 -69.6, -10.36 -69.19 C-17.59 -68.78, -29.15 -51.79, -37.71 -49.65 C-46.28 -47.51, -58.31 -49.93, -61.72 -56.35 C-65.14 -62.78, -70.27 -80.71, -58.19 -88.2 C-46.12 -95.68, -4.97 -100.99, 10.74 -101.27 C26.45 -101.54, 32.72 -104.15, 36.08 -89.86 C39.44 -75.56, 33.27 -36.46, 30.92 -15.51 C28.56 5.44, 28.29 28.12, 21.97 35.84 C15.64 43.56, 2.96 32.39, -7.03 30.8 C-17.02 29.21, -33.1 31.54, -37.99 26.3 C-42.87 21.05, -42.68 3.74, -36.33 -0.67 C-29.97 -5.09, -6.05 0.01, 0.16 -0.18" stroke="none" stroke-width="0" fill="#e9ecef" fill-rule="evenodd"></path><path d="M-1.13 0.32 C-0.2 -8.16, 6.41 -40.91, 4.71 -51.98 C3.01 -63.06, -3.86 -66.12, -11.31 -66.13 C-18.77 -66.13, -31.59 -53.95, -40.04 -52 C-48.5 -50.05, -58.85 -48.24, -62.04 -54.43 C-65.23 -60.62, -70.9 -81.52, -59.18 -89.14 C-47.47 -96.76, -7.65 -100.31, 8.23 -100.14 C24.11 -99.97, 32.04 -102.36, 36.07 -88.12 C40.1 -73.88, 35.27 -35.2, 32.4 -14.69 C29.53 5.81, 25.88 27.67, 18.86 34.9 C11.84 42.13, -0.41 29.89, -9.72 28.69 C-19.03 27.49, -32.52 32.28, -37 27.7 C-41.47 23.11, -42.93 5.71, -36.57 1.18 C-30.21 -3.34, -5.15 0.73, 1.14 0.55 M0.48 -0.56 C1.34 -8.8, 5.91 -39.6, 3.9 -50.87 C1.88 -62.13, -4.31 -68.06, -11.59 -68.13 C-18.88 -68.21, -31.67 -53.68, -39.79 -51.33 C-47.9 -48.97, -57.28 -47.6, -60.3 -53.98 C-63.31 -60.37, -69.35 -81.84, -57.88 -89.66 C-46.41 -97.47, -7.01 -101.08, 8.52 -100.9 C24.05 -100.72, 31.58 -102.79, 35.29 -88.57 C39 -74.35, 33.51 -36.05, 30.79 -15.61 C28.08 4.83, 25.79 26.55, 19.01 34.07 C12.24 41.6, -0.33 30.6, -9.83 29.55 C-19.33 28.51, -33.47 32.65, -37.97 27.79 C-42.47 22.93, -43.35 4.92, -36.85 0.4 C-30.35 -4.13, -4.84 0.78, 1.04 0.65" stroke="#1e1e1e" stroke-width="1" fill="none"></path></g></g><mask></mask></svg>