<svg version="1.1" xmlns="http://www.w3.org/2000/svg" viewBox="0 0 738.692499127855 397.2398589733085" width="738.692499127855" height="397.2398589733085"><!-- svg-source:excalidraw --><metadata></metadata><defs><style class="style-fonts">
      </style></defs><rect x="0" y="0" width="738.692499127855" height="397.2398589733085" fill="#ffffff"></rect><g stroke-linecap="round" transform="translate(421.2061911618425 10) rotate(0 103.09930811177207 30.623556864882744)"><path d="M54.87 3.49 C66.83 1.1, 84.62 0.53, 99.79 0.35 C114.96 0.17, 132.18 0.71, 145.89 2.41 C159.61 4.12, 172.51 7.22, 182.07 10.57 C191.63 13.92, 199.67 18.14, 203.25 22.5 C206.82 26.87, 206.44 32.51, 203.53 36.77 C200.61 41.03, 194.46 44.6, 185.76 48.07 C177.06 51.53, 164.6 55.22, 151.31 57.57 C138.02 59.93, 121.14 62, 106.01 62.18 C90.89 62.36, 74.32 60.59, 60.55 58.64 C46.79 56.69, 33.04 53.98, 23.42 50.48 C13.8 46.98, 6.4 41.9, 2.86 37.66 C-0.68 33.43, -0.78 29.38, 2.17 25.07 C5.12 20.76, 10.66 15.54, 20.57 11.78 C30.49 8.03, 53.58 4.25, 61.65 2.54 C69.72 0.84, 68.17 1.1, 68.98 1.54 M88.68 -0.64 C102.77 -1.66, 122.36 0.83, 136.87 2.19 C151.37 3.55, 165.16 4.55, 175.71 7.51 C186.26 10.46, 195.05 15.46, 200.17 19.9 C205.28 24.35, 207.69 29.85, 206.42 34.17 C205.14 38.49, 200.29 41.98, 192.53 45.82 C184.76 49.66, 172.75 54.65, 159.84 57.19 C146.94 59.73, 130.02 60.82, 115.11 61.04 C100.2 61.26, 84.24 60.12, 70.39 58.51 C56.55 56.89, 42.75 54.19, 32.03 51.37 C21.31 48.54, 11.52 45.29, 6.07 41.57 C0.62 37.84, -1.93 33.66, -0.66 29.03 C0.61 24.39, 6.01 17.69, 13.68 13.77 C21.35 9.84, 32.67 7.5, 45.36 5.45 C58.06 3.4, 82.19 2.06, 89.84 1.47 C97.49 0.89, 90.94 1.48, 91.25 1.94" stroke="none" stroke-width="0" fill="#eebefa"></path><path d="M105.27 1 C119.61 0.53, 136.9 1.15, 150.3 2.84 C163.69 4.53, 176.84 7.61, 185.66 11.13 C194.47 14.65, 200.12 19.5, 203.17 23.95 C206.21 28.41, 207.32 33.49, 203.93 37.86 C200.53 42.22, 192.6 46.75, 182.79 50.12 C172.97 53.5, 158.62 56.21, 145.04 58.09 C131.45 59.96, 116 61.55, 101.29 61.38 C86.59 61.21, 70.12 59.05, 56.8 57.07 C43.48 55.08, 30.45 52.84, 21.39 49.48 C12.34 46.13, 5.48 41.33, 2.46 36.94 C-0.56 32.55, -0.15 27.38, 3.27 23.13 C6.68 18.88, 13.45 14.93, 22.96 11.45 C32.46 7.96, 45.56 3.94, 60.28 2.2 C74.99 0.47, 101.78 1.16, 111.26 1.05 C120.74 0.94, 117.26 1.07, 117.14 1.56 M111.64 -1.18 C125.82 -1.27, 142.21 1.83, 154.88 4.09 C167.54 6.35, 179.11 8.64, 187.64 12.36 C196.18 16.08, 203.84 21.97, 206.07 26.39 C208.31 30.8, 205.47 34.59, 201.04 38.84 C196.61 43.09, 189.42 48.47, 179.47 51.88 C169.53 55.29, 155.69 57.94, 141.39 59.29 C127.09 60.65, 108.94 60.22, 93.66 60 C78.37 59.77, 62.24 59.9, 49.68 57.94 C37.11 55.98, 26.53 52.12, 18.27 48.24 C10.02 44.36, 2.49 39.15, 0.14 34.63 C-2.2 30.11, -0.29 25.55, 4.22 21.14 C8.73 16.74, 17.01 11.36, 27.2 8.19 C37.38 5.03, 51.45 3.61, 65.34 2.15 C79.24 0.69, 103.01 -0.52, 110.57 -0.59 C118.12 -0.65, 110.62 1.35, 110.68 1.75" stroke="#1e1e1e" stroke-width="1" fill="none"></path></g><g stroke-linecap="round"><g transform="translate(421.28314657738724 44.8741851624564) rotate(0 103.80776778696668 116.16583538065319)" fill-rule="evenodd"><path d="M-2.07 0.08 C-2.27 36.93, -33.62 184.26, -0.52 222.62 C32.59 260.98, 161.96 266.55, 196.57 230.25 C231.17 193.94, 208.87 40.45, 207.11 4.79 C205.35 -30.87, 208.25 13.46, 186 16.27 C163.75 19.08, 99.33 21.18, 73.59 21.66 C47.86 22.14, 43.86 22.42, 31.6 19.14 C19.34 15.86, 4.99 4.88, 0.04 1.98" stroke="none" stroke-width="0" fill="#eebefa" fill-rule="evenodd"></path><path d="M-1.11 1.01 C-1.13 38.22, -33.02 185.59, -0.24 224.25 C32.54 262.91, 161.07 269.76, 195.57 232.97 C230.06 196.18, 207.81 39.91, 206.71 3.52 C205.6 -32.87, 210.67 11.48, 188.94 14.63 C167.21 17.78, 102.12 21.82, 76.33 22.42 C50.53 23.03, 46.8 21.92, 34.17 18.27 C21.54 14.62, 6.08 3.64, 0.55 0.51 M0.51 0.5 C0.31 37.8, -33.69 187.22, -1.31 225.63 C31.06 264.04, 160.14 267.86, 194.78 230.97 C229.41 194.07, 207.6 40.2, 206.48 4.25 C205.36 -31.69, 210.05 11.91, 188.05 15.29 C166.05 18.68, 100 24.32, 74.48 24.58 C48.97 24.85, 47.41 20.9, 34.96 16.87 C22.52 12.85, 5.67 3, -0.19 0.44" stroke="#1e1e1e" stroke-width="1" fill="none"></path></g></g><mask></mask><g stroke-linecap="round" transform="translate(183.69170952400145 15.759918453973228) rotate(0 103.09930811177207 30.623556864882744)"><path d="M140.68 2.3 C154.32 3.21, 168.47 5.79, 178.7 9.06 C188.93 12.32, 197.62 17.39, 202.05 21.89 C206.49 26.39, 207.74 31.66, 205.3 36.05 C202.85 40.43, 196.02 44.75, 187.39 48.21 C178.76 51.66, 166.56 54.61, 153.52 56.77 C140.47 58.92, 123.98 60.62, 109.11 61.13 C94.23 61.64, 78 61.44, 64.27 59.85 C50.54 58.25, 36.81 55.08, 26.74 51.55 C16.67 48.02, 8.01 42.94, 3.86 38.65 C-0.3 34.36, -0.63 30.04, 1.79 25.8 C4.21 21.57, 10.05 17.04, 18.36 13.24 C26.68 9.44, 38.66 5.17, 51.68 3.01 C64.7 0.85, 79.37 0.2, 96.48 0.26 C113.6 0.33, 143.27 2.5, 154.36 3.4 C165.45 4.31, 164 5.08, 163.02 5.68 M144.74 3.22 C158.34 4.3, 172.73 7.18, 182.51 10.38 C192.29 13.57, 199.99 18.08, 203.4 22.41 C206.8 26.74, 206.03 31.89, 202.93 36.34 C199.84 40.79, 193.87 45.3, 184.81 49.13 C175.76 52.95, 161.87 57.32, 148.59 59.31 C135.3 61.3, 119.9 61.35, 105.09 61.07 C90.28 60.79, 73.26 59.65, 59.73 57.63 C46.21 55.62, 33.22 52.11, 23.92 48.98 C14.62 45.85, 7.81 42.85, 3.96 38.84 C0.1 34.82, -2.02 29.46, 0.81 24.9 C3.64 20.34, 11.66 15.21, 20.94 11.47 C30.21 7.72, 43.19 4.53, 56.46 2.45 C69.72 0.36, 85.45 -0.89, 100.54 -1.02 C115.63 -1.16, 139.52 0.86, 146.99 1.65 C154.45 2.45, 146.36 3.04, 145.34 3.75" stroke="none" stroke-width="0" fill="#99e9f2"></path><path d="M64.62 2.73 C77.23 0.82, 95.63 0.31, 110.43 0.61 C125.23 0.9, 140.46 2.55, 153.42 4.52 C166.38 6.48, 179.51 8.79, 188.2 12.42 C196.9 16.06, 203.35 21.66, 205.59 26.32 C207.83 30.98, 206.07 36.07, 201.65 40.38 C197.22 44.69, 189.21 49.07, 179.06 52.21 C168.91 55.34, 154.64 57.6, 140.74 59.18 C126.84 60.76, 110.6 62.02, 95.65 61.68 C80.7 61.35, 64.09 59.62, 51.04 57.2 C37.99 54.77, 25.81 50.92, 17.35 47.14 C8.9 43.37, 2.49 38.67, 0.28 34.54 C-1.92 30.42, -0.3 26.66, 4.12 22.41 C8.54 18.15, 14.48 12.6, 26.82 9.03 C39.16 5.45, 67.33 2.24, 78.15 0.97 C88.98 -0.3, 91.24 0.86, 91.76 1.41 M61.6 2.41 C74.16 0.67, 91.75 1.14, 106.88 1.42 C122.01 1.69, 139.02 2.21, 152.4 4.06 C165.78 5.92, 178.35 9.09, 187.16 12.54 C195.98 16, 202.48 20.4, 205.29 24.79 C208.1 29.18, 207.79 34.66, 204 38.87 C200.21 43.08, 192.41 46.79, 182.54 50.06 C172.67 53.32, 158.61 56.79, 144.78 58.45 C130.94 60.11, 114.35 60.27, 99.52 60.03 C84.68 59.8, 69.16 58.93, 55.76 57.04 C42.35 55.15, 28.11 52.35, 19.07 48.67 C10.03 45, 4.12 39.42, 1.54 35.01 C-1.04 30.61, -0.31 26.21, 3.58 22.26 C7.47 18.31, 15.03 14.55, 24.86 11.32 C34.69 8.08, 56.43 4.07, 62.56 2.84 C68.7 1.61, 61.17 3.62, 61.65 3.94" stroke="#1e1e1e" stroke-width="1" fill="none"></path></g><g stroke-linecap="round"><g transform="translate(183.76866493954594 50.63410361642963) rotate(0 103.80776778696668 116.16583538065319)" fill-rule="evenodd"><path d="M1.26 -2.05 C1.22 35.11, -32.07 183.99, -0.01 222.67 C32.05 261.36, 159.3 266.62, 193.6 230.07 C227.9 193.52, 206.44 39.55, 205.77 3.38 C205.1 -32.79, 211.61 9.8, 189.56 13.04 C167.51 16.27, 99.39 22.12, 73.48 22.78 C47.57 23.44, 46.07 20.6, 34.08 16.97 C22.09 13.34, 7.05 4.17, 1.53 1.01" stroke="none" stroke-width="0" fill="#99e9f2" fill-rule="evenodd"></path><path d="M-0.91 -0.13 C-0.82 37, -32.71 185.26, 0.16 224.01 C33.02 262.75, 161.61 269.14, 196.3 232.33 C230.98 195.52, 209.57 39.49, 208.25 3.15 C206.94 -33.19, 210.69 10.8, 188.4 14.28 C166.12 17.76, 100.21 23.36, 74.53 24.03 C48.85 24.69, 46.6 22.24, 34.34 18.26 C22.09 14.28, 6.56 3.27, 1 0.15 M0.82 -1.25 C0.8 36.55, -33.22 186.1, -0.71 225.25 C31.8 264.4, 160.97 270.57, 195.89 233.64 C230.82 196.72, 210.28 40.17, 208.83 3.69 C207.39 -32.8, 209.47 11.47, 187.23 14.75 C164.99 18.03, 100.74 23.01, 75.4 23.36 C50.07 23.72, 47.71 20.78, 35.22 16.87 C22.74 12.95, 6.4 2.44, 0.5 -0.11" stroke="#1e1e1e" stroke-width="1" fill="none"></path></g></g><mask></mask><g stroke-linecap="round" transform="translate(267.1484661273778 94.76564803850312) rotate(0 103.09930811177207 30.623556864882744)"><path d="M92.53 0.7 C106.27 -0.27, 123.4 0.79, 137.47 2.13 C151.53 3.48, 166.33 5.74, 176.92 8.77 C187.5 11.8, 196.35 16.1, 200.98 20.31 C205.6 24.53, 206.55 29.6, 204.66 34.07 C202.77 38.55, 197.72 43.22, 189.64 47.15 C181.57 51.08, 168.91 55.35, 156.2 57.65 C143.49 59.96, 128.17 60.78, 113.4 60.98 C98.63 61.18, 81.58 60.47, 67.58 58.85 C53.59 57.22, 39.7 54.2, 29.43 51.22 C19.17 48.23, 10.91 44.94, 5.99 40.93 C1.07 36.93, -1.82 31.71, -0.1 27.17 C1.61 22.62, 8.03 17.54, 16.26 13.67 C24.48 9.79, 36.11 6.31, 49.23 3.93 C62.34 1.56, 86.71 0.07, 94.94 -0.6 C103.17 -1.27, 98.37 -0.77, 98.58 -0.1 M74.56 0.48 C87.5 -0.87, 104.28 0.96, 118.81 1.86 C133.33 2.76, 149.49 3.52, 161.7 5.9 C173.91 8.28, 184.92 12.29, 192.08 16.13 C199.24 19.98, 203.71 24.53, 204.68 28.95 C205.65 33.37, 203.28 38.62, 197.92 42.64 C192.55 46.66, 183.2 50.19, 172.49 53.07 C161.77 55.96, 148.17 58.4, 133.62 59.93 C119.07 61.47, 100.34 63.02, 85.17 62.29 C70 61.57, 54.41 58.5, 42.58 55.56 C30.75 52.63, 21.43 48.67, 14.2 44.68 C6.96 40.69, 0.14 35.88, -0.84 31.62 C-1.83 27.36, 2.62 23.25, 8.27 19.12 C13.93 14.99, 22.1 9.86, 33.11 6.86 C44.12 3.86, 67.66 2.19, 74.32 1.12 C80.99 0.04, 72.91 0.12, 73.1 0.42" stroke="none" stroke-width="0" fill="#ffec99"></path><path d="M123.34 0.09 C137.43 0.61, 153.75 3.28, 165.71 6.22 C177.67 9.17, 188.25 13.72, 195.12 17.75 C202 21.78, 206.56 26.11, 206.96 30.4 C207.37 34.68, 203.83 39.52, 197.58 43.47 C191.33 47.42, 180.95 51.27, 169.49 54.12 C158.02 56.97, 143.23 59.55, 128.79 60.57 C114.36 61.59, 97.59 61.22, 82.89 60.25 C68.19 59.28, 52.55 57.53, 40.61 54.76 C28.66 51.99, 17.89 47.63, 11.21 43.63 C4.53 39.63, 0.96 35.07, 0.54 30.76 C0.11 26.44, 2.54 21.86, 8.64 17.76 C14.74 13.66, 25.52 9.02, 37.14 6.16 C48.75 3.3, 62.16 1.31, 78.33 0.6 C94.5 -0.12, 123.28 1.42, 134.16 1.86 C145.04 2.3, 144.23 2.75, 143.61 3.25 M87.3 1.56 C101.09 0.54, 117.99 0.86, 131.89 1.93 C145.8 3.01, 159.76 5.4, 170.72 8.01 C181.67 10.63, 191.69 13.54, 197.61 17.63 C203.53 21.71, 206.89 27.72, 206.24 32.52 C205.58 37.32, 201.08 42.55, 193.67 46.44 C186.27 50.32, 174.19 53.56, 161.81 55.84 C149.43 58.11, 134.21 59.38, 119.4 60.06 C104.59 60.74, 87.25 60.84, 72.95 59.93 C58.65 59.02, 44.52 57.47, 33.6 54.59 C22.68 51.71, 13.13 47.15, 7.45 42.66 C1.77 38.17, -1.54 32.15, -0.47 27.66 C0.6 23.17, 6.49 19.37, 13.86 15.71 C21.22 12.05, 31.82 8.5, 43.73 5.71 C55.63 2.92, 78.1 -0.29, 85.29 -1.02 C92.48 -1.75, 86.28 0.7, 86.88 1.31" stroke="#1e1e1e" stroke-width="1" fill="none"></path></g><g stroke-linecap="round"><g transform="translate(267.22542154292273 129.63983320095946) rotate(0 103.80776778696668 116.16583538065319)" fill-rule="evenodd"><path d="M-0.38 0.34 C-0.56 37.88, -34.44 187.47, -1.95 225.83 C30.53 264.2, 159.64 267.52, 194.52 230.52 C229.41 193.51, 208.85 39.85, 207.37 3.8 C205.9 -32.24, 207.78 11.02, 185.69 14.26 C163.6 17.49, 99.94 22.33, 74.82 23.21 C49.7 24.1, 47.36 23.72, 34.96 19.58 C22.57 15.45, 6.06 1.79, 0.45 -1.61" stroke="none" stroke-width="0" fill="#ffec99" fill-rule="evenodd"></path><path d="M0.49 0.47 C0.44 37.61, -33.4 184.98, -0.99 223.59 C31.42 262.21, 160.19 268.72, 194.94 232.16 C229.69 195.6, 208.49 40.41, 207.49 4.23 C206.5 -31.96, 210.88 11.73, 188.96 15.06 C167.04 18.4, 101.81 23.55, 75.98 24.22 C50.15 24.89, 46.67 22.94, 33.99 19.08 C21.31 15.22, 5.52 4.05, -0.1 1.04 M-0.71 -0.33 C-0.33 36.86, -31.22 185.67, 1.2 224.62 C33.63 263.58, 159.41 269.93, 193.82 233.38 C228.23 196.83, 208.63 41.57, 207.67 5.33 C206.72 -30.91, 210.36 12.89, 188.08 15.95 C165.79 19.01, 99.51 23.3, 73.95 23.66 C48.38 24.03, 47.21 21.85, 34.69 18.11 C22.17 14.38, 4.82 4.24, -1.17 1.25" stroke="#1e1e1e" stroke-width="1" fill="none"></path></g></g><mask></mask><g stroke-linecap="round" transform="translate(513.0677089186618 93.65289128379146) rotate(0 103.09930811177196 30.623556864882744)"><path d="M55.83 3.6 C67.78 1.35, 85.41 0.61, 100.42 0.35 C115.42 0.09, 132.18 0.31, 145.84 2.05 C159.5 3.79, 172.94 7.32, 182.37 10.78 C191.8 14.24, 198.69 18.32, 202.42 22.81 C206.14 27.3, 207.65 33.41, 204.71 37.71 C201.78 42.01, 193.95 45.31, 184.81 48.62 C175.66 51.92, 163.06 55.37, 149.86 57.53 C136.66 59.7, 120.63 61.49, 105.59 61.61 C90.56 61.73, 73.32 60.01, 59.63 58.25 C45.95 56.49, 32.85 54.35, 23.49 51.05 C14.13 47.75, 6.89 42.75, 3.49 38.44 C0.1 34.13, 0.22 29.48, 3.11 25.18 C5.99 20.87, 9.57 16.45, 20.81 12.61 C32.05 8.77, 59.42 3.98, 70.53 2.14 C81.65 0.3, 86.78 1.08, 87.48 1.58 M125.61 0.91 C139.72 1.53, 156.49 3.64, 168.25 6.45 C180.01 9.26, 189.92 13.84, 196.15 17.76 C202.38 21.68, 205.47 25.37, 205.65 29.97 C205.84 34.57, 203.5 41.11, 197.26 45.37 C191.02 49.62, 179.96 52.93, 168.22 55.51 C156.48 58.09, 141.45 59.81, 126.8 60.84 C112.15 61.87, 94.92 62.9, 80.32 61.69 C65.73 60.47, 50.88 56.38, 39.24 53.55 C27.6 50.72, 17.27 48.62, 10.48 44.69 C3.69 40.76, -1.65 34.58, -1.5 29.98 C-1.35 25.38, 4.63 21.08, 11.38 17.07 C18.13 13.06, 27.78 8.79, 39.01 5.92 C50.23 3.06, 64.05 0.82, 78.73 -0.1 C93.41 -1.02, 119.25 0.23, 127.11 0.39 C134.98 0.55, 126.37 0.28, 125.92 0.88" stroke="none" stroke-width="0" fill="#ffc9c9"></path><path d="M91.48 0.27 C105.2 -0.51, 122.39 0.54, 136.34 1.85 C150.29 3.17, 164.6 5.07, 175.2 8.15 C185.8 11.22, 194.9 16.12, 199.95 20.3 C205 24.48, 206.92 28.81, 205.52 33.22 C204.11 37.64, 199.4 42.96, 191.51 46.79 C183.61 50.61, 171 53.78, 158.16 56.17 C145.31 58.56, 129.38 60.47, 114.45 61.13 C99.53 61.8, 82.51 61.78, 68.6 60.16 C54.69 58.55, 41.39 54.71, 31 51.46 C20.61 48.21, 11.37 44.68, 6.24 40.64 C1.12 36.61, -1.22 31.68, 0.25 27.25 C1.71 22.83, 7.2 17.72, 15.03 14.08 C22.87 10.44, 31.73 7.74, 47.24 5.42 C62.76 3.11, 94.98 0.96, 108.14 0.19 C121.31 -0.58, 126.18 0.36, 126.24 0.82 M123.93 -0.03 C138.32 0.31, 153.02 2.54, 164.84 5.05 C176.65 7.56, 187.9 11.07, 194.82 15.05 C201.74 19.02, 205.83 24.2, 206.35 28.88 C206.88 33.57, 204.04 38.77, 197.97 43.17 C191.9 47.58, 181.34 52.66, 169.93 55.29 C158.52 57.93, 143.64 58.3, 129.52 58.98 C115.39 59.66, 99.84 59.81, 85.18 59.36 C70.52 58.91, 53.95 58.86, 41.57 56.27 C29.2 53.68, 18.01 47.82, 10.95 43.84 C3.88 39.85, -0.46 36.75, -0.83 32.36 C-1.2 27.96, 2.77 21.58, 8.74 17.47 C14.7 13.36, 23.66 10.69, 34.96 7.7 C46.25 4.71, 62.13 0.98, 76.48 -0.45 C90.83 -1.89, 113.66 -1.23, 121.06 -0.9 C128.45 -0.58, 121 0.75, 120.85 1.49" stroke="#1e1e1e" stroke-width="1" fill="none"></path></g><g stroke-linecap="round"><g transform="translate(513.1446643342063 128.5270764462478) rotate(0 103.80776778696668 116.16583538065319)" fill-rule="evenodd"><path d="M1.46 1.32 C1.06 39.21, -34.47 187.02, -2.19 225.38 C30.09 263.73, 160.18 268.54, 195.12 231.45 C230.07 194.36, 208.84 39.34, 207.49 2.84 C206.13 -33.66, 208.72 9.34, 187 12.44 C165.29 15.55, 102.66 20.37, 77.2 21.47 C51.74 22.57, 47.35 22.53, 34.25 19.04 C21.15 15.54, 4.37 3.53, -1.4 0.51" stroke="none" stroke-width="0" fill="#ffc9c9" fill-rule="evenodd"></path><path d="M-0.28 0.66 C-0.52 37.97, -33.66 186.4, -1 224.92 C31.66 263.44, 160.88 268.67, 195.69 231.78 C230.49 194.9, 209.28 39.94, 207.82 3.59 C206.37 -32.75, 209.01 10.45, 186.95 13.72 C164.89 16.99, 101.09 22.26, 75.44 23.21 C49.79 24.17, 45.61 23.35, 33.03 19.45 C20.45 15.56, 5.53 3.22, -0.04 -0.14 M1.78 -0.05 C1.86 37.41, -31 184.17, 1.19 222.98 C33.39 261.79, 160.46 269.25, 194.96 232.81 C229.46 196.38, 209.22 40.84, 208.18 4.36 C207.13 -32.13, 210.57 10.94, 188.67 13.9 C166.77 16.86, 102.7 21.33, 76.79 22.13 C50.88 22.92, 46.2 22.46, 33.22 18.68 C20.24 14.9, 4.21 2.36, -1.09 -0.55" stroke="#1e1e1e" stroke-width="1" fill="none"></path></g></g><mask></mask><g stroke-linecap="round" transform="translate(24.864831192905513 92.70152247489074) rotate(0 103.09930811177207 30.623556864882744)"><path d="M61.57 3.25 C74.02 1.13, 91.64 -0.89, 106.57 -0.83 C121.49 -0.76, 137.95 1.31, 151.11 3.63 C164.27 5.95, 176.57 9.46, 185.52 13.08 C194.47 16.69, 202.1 21.22, 204.82 25.34 C207.54 29.45, 205.88 33.57, 201.85 37.76 C197.82 41.95, 190.26 46.98, 180.65 50.47 C171.04 53.96, 157.6 56.77, 144.17 58.69 C130.75 60.61, 114.95 62.05, 100.12 62.01 C85.29 61.97, 68.54 60.56, 55.22 58.46 C41.9 56.35, 29.11 52.94, 20.19 49.4 C11.27 45.85, 4.45 41.48, 1.71 37.17 C-1.03 32.86, -0.07 27.9, 3.75 23.52 C7.57 19.14, 14.37 14.44, 24.64 10.9 C34.9 7.35, 57.96 3.6, 65.36 2.25 C72.76 0.9, 68.47 2.47, 69.05 2.8 M98.07 -0.42 C112.18 -0.76, 129.27 1.22, 143.12 3.06 C156.97 4.91, 171.46 7.3, 181.17 10.65 C190.88 13.99, 197.54 19.04, 201.37 23.16 C205.19 27.28, 206.57 30.97, 204.14 35.35 C201.7 39.74, 195.18 45.8, 186.74 49.45 C178.31 53.11, 166.5 55.55, 153.53 57.26 C140.55 58.97, 123.96 59.62, 108.9 59.73 C93.83 59.84, 77.23 59.33, 63.14 57.9 C49.05 56.46, 34.23 54.18, 24.35 51.11 C14.47 48.05, 7.52 43.9, 3.87 39.51 C0.21 35.12, -0.18 29.32, 2.43 24.78 C5.05 20.25, 11.12 15.99, 19.55 12.3 C27.99 8.61, 39.98 4.74, 53.04 2.63 C66.1 0.52, 90.2 0, 97.92 -0.36 C105.63 -0.73, 99.16 -0.01, 99.33 0.45" stroke="none" stroke-width="0" fill="#a5d8ff"></path><path d="M90.83 0.15 C104.44 -0.71, 121.58 0.5, 135.8 1.94 C150.03 3.39, 165.54 5.89, 176.2 8.82 C186.86 11.75, 194.87 15.37, 199.78 19.51 C204.7 23.66, 207.14 29.25, 205.68 33.68 C204.23 38.1, 198.99 42.37, 191.05 46.09 C183.11 49.81, 170.73 53.45, 158.03 55.99 C145.33 58.53, 129.64 60.67, 114.85 61.34 C100.06 62.01, 83.31 61.61, 69.28 60.01 C55.24 58.4, 41.07 54.92, 30.66 51.71 C20.26 48.51, 11.9 44.79, 6.85 40.76 C1.8 36.73, -1.18 31.86, 0.38 27.54 C1.94 23.21, 8.41 18.56, 16.23 14.81 C24.06 11.07, 32.27 7.45, 47.35 5.05 C62.43 2.65, 94.61 1.16, 106.71 0.42 C118.82 -0.32, 120.1 0.22, 119.97 0.6 M83.29 0.67 C97.16 -0.42, 115.78 1.18, 130.25 2.4 C144.71 3.62, 158.75 5.18, 170.07 7.99 C181.39 10.79, 192.39 15.35, 198.19 19.25 C203.99 23.14, 205.57 26.84, 204.88 31.34 C204.19 35.85, 200.9 42.34, 194.02 46.28 C187.15 50.23, 175.46 52.72, 163.62 55 C151.78 57.29, 137.29 59.12, 122.99 59.99 C108.68 60.86, 92.11 61.47, 77.79 60.24 C63.47 59.01, 48.43 55.42, 37.05 52.58 C25.67 49.74, 15.9 46.89, 9.52 43.21 C3.14 39.54, -1.69 35.02, -1.23 30.54 C-0.78 26.06, 4.94 20.38, 12.26 16.33 C19.58 12.29, 30.63 8.99, 42.7 6.27 C54.77 3.55, 77.79 0.88, 84.66 0 C91.53 -0.88, 83.69 0.61, 83.94 0.99" stroke="#1e1e1e" stroke-width="1" fill="none"></path></g><g stroke-linecap="round"><g transform="translate(24.941786608450457 127.57570763734708) rotate(0 103.80776778696668 116.16583538065319)" fill-rule="evenodd"><path d="M1.08 0.47 C0.69 38.34, -33.96 188.31, -1.58 226.86 C30.81 265.41, 160.46 268.62, 195.41 231.78 C230.37 194.93, 209.28 42.3, 208.17 5.79 C207.07 -30.72, 210.77 9.5, 188.79 12.73 C166.81 15.96, 101.93 24.38, 76.28 25.18 C50.63 25.98, 47.8 21.62, 34.9 17.54 C22 13.45, 4.85 3.76, -1.1 0.68" stroke="none" stroke-width="0" fill="#a5d8ff" fill-rule="evenodd"></path><path d="M-0.28 0.85 C-0.39 38.1, -32.9 185.77, -0.26 224.15 C32.37 262.53, 160.85 267.71, 195.55 231.15 C230.24 194.59, 209.23 41.07, 207.93 4.8 C206.63 -31.47, 210 10.42, 187.76 13.52 C165.52 16.62, 100.19 22.51, 74.49 23.41 C48.8 24.31, 46.14 22.86, 33.58 18.91 C21.02 14.96, 4.82 2.9, -0.88 -0.29 M1.78 0.25 C1.45 37.61, -33.51 186.87, -1.35 225.47 C30.81 264.07, 159.8 269, 194.74 231.84 C229.69 194.69, 209.76 38.91, 208.34 2.54 C206.93 -33.84, 208.41 10.28, 186.24 13.59 C164.07 16.91, 100.71 21.72, 75.35 22.42 C49.98 23.13, 46.4 21.71, 34.06 17.85 C21.71 13.98, 6.8 2.48, 1.3 -0.78" stroke="#1e1e1e" stroke-width="1" fill="none"></path></g></g><mask></mask></svg>